
        <svg xmlns="http://www.w3.org/2000/svg" xmlns:xlink="http://www.w3.org/1999/xlink" version="1.1" width="3162.109114700074" 
        height="865.2755268652318" viewBox="0 0 3162.109114700074 865.2755268652318">
			
			<g transform="scale(8.105455735003694) translate(10, 10)">
				<defs id="SvgjsDefs9535"></defs><g id="SvgjsG9536" featureKey="symbolFeature-0" transform="matrix(0.11131105922011776,0,0,0.11131105922011776,10.782966267414576,-11.279409704654444)" fill="#124da8"><path xmlns="http://www.w3.org/2000/svg" d="M939.3,463.4l-153-103.3c0,0-0.1-0.1-0.1-0.1c-0.2-0.1-0.4-0.2-0.6-0.3c-0.2-0.1-0.4-0.2-0.6-0.3c-0.2-0.1-0.4-0.2-0.6-0.3  c-0.2-0.1-0.4-0.2-0.7-0.3c-0.2-0.1-0.4-0.1-0.6-0.2c-0.2-0.1-0.4-0.1-0.7-0.2c-0.2,0-0.5-0.1-0.7-0.1c-0.2,0-0.4-0.1-0.7-0.1  c-0.3,0-0.5,0-0.8,0c-0.2,0-0.4,0-0.6,0c-0.4,0-0.8,0.1-1.1,0.1c-0.1,0-0.2,0-0.2,0c-0.5,0.1-0.9,0.2-1.4,0.3l-31.8,9.8l13-109.5  c0.6-4.9-2.2-9.6-6.8-11.5L435.6,120c0,0-0.1,0-0.1,0c-0.1-0.1-0.3-0.1-0.4-0.1c-0.3-0.1-0.6-0.2-1-0.3c-0.2,0-0.3-0.1-0.5-0.1  c-0.3-0.1-0.6-0.1-0.9-0.2c-0.2,0-0.4,0-0.5,0c-0.3,0-0.6,0-0.8,0c-0.2,0-0.4,0-0.6,0c-0.3,0-0.5,0-0.8,0.1c-0.2,0-0.4,0.1-0.6,0.1  c-0.2,0-0.5,0.1-0.7,0.2c-0.2,0.1-0.4,0.1-0.6,0.2c-0.2,0.1-0.5,0.2-0.7,0.3c-0.2,0.1-0.4,0.2-0.6,0.3c-0.2,0.1-0.4,0.2-0.6,0.3  c-0.1,0.1-0.3,0.1-0.4,0.2L221.4,248.4c-3.8,2.3-5.7,6.7-5,11.1l38.7,237.9L224,485.6c0,0-0.1,0-0.1,0c-0.4-0.1-0.8-0.3-1.2-0.4  c-0.1,0-0.3,0-0.4-0.1c-0.3-0.1-0.6-0.1-0.9-0.2c-0.2,0-0.3,0-0.5,0c-0.3,0-0.5,0-0.8,0c-0.2,0-0.4,0-0.5,0c-0.3,0-0.5,0-0.8,0.1  c-0.2,0-0.3,0-0.5,0.1c-0.3,0-0.6,0.1-0.9,0.2c-0.1,0-0.3,0.1-0.4,0.1c0,0-0.1,0-0.1,0L63.6,532.6c-5.7,1.8-9,7.8-7.3,13.6  l95.5,326.6c1.4,4.7,5.7,7.9,10.6,7.9h109c0,0,0,0,0,0s0,0,0,0h55.5c0,0,0,0,0,0h104.7c0,0,0,0,0,0s0,0,0,0h243.1c0,0,0,0,0,0h46.3  c0,0,0,0,0,0H850c5.2,0,9.7-3.7,10.8-8.7l83.1-397.3C944.9,470.4,943,465.9,939.3,463.4z M586,858.8V440.6l133.3-41.1l-54.5,459.3  H586z M334.3,551.1l40.8,307.7h-39l-53.2-327.2l5.3,2L334.3,551.1z M259.2,522.5l54.7,336.3h-33l-47.4-346.1L259.2,522.5z   M170.6,858.8L80.4,550.5l130.5-40.3l47.8,348.6H170.6z M420.4,858.8h-23.1l-42.1-317.1c-0.3-2.5-1.5-4.8-3.3-6.5  c-1.1-1-2.3-1.8-3.7-2.4l-69.4-26.4l-39.6-243.3L420.4,150V858.8z M442.4,146.5l292.9,118.3l-13.2,110.8L571.8,422  c-4.6,1.4-7.8,5.7-7.8,10.5v426.3H442.4V146.5z M712,647.4l30.3-255l25-7.7l-56.1,474.1H687L712,647.4z M841.1,858.8H733.3  L789,388.4l131.9,89.1L841.1,858.8z"></path></g><g id="SvgjsG9537" featureKey="nameFeature-0" transform="matrix(1.9759913595346434,0,0,1.9759913595346434,115.3762803757086,-26.16212137906573)" fill="#071333"><path d="M8.76 13.84 c0.04 -0.12 0.12 -0.24 0.28 -0.24 l4.96 0 c0.16 0 0.24 0.12 0.28 0.24 l6.92 25.72 c0.04 0.24 -0.12 0.44 -0.36 0.44 l-4.56 0 c-0.12 0 -0.24 -0.08 -0.28 -0.24 l-1.56 -5.6 l-5.84 0 l-1.52 5.6 c-0.04 0.16 -0.12 0.24 -0.28 0.24 l-4.6 0 c-0.24 0 -0.4 -0.2 -0.36 -0.44 z M9.88 29.2 l3.32 0 l-1.72 -6.04 z M16.04 31.560000000000002 l1.84 6 c0.08 0.24 0.52 0.2 0.4 -0.12 l-6.4 -21.28 c-0.12 -0.52 -0.8 -0.56 -0.92 0 l-6.2 21.28 c-0.12 0.28 0.32 0.4 0.44 0.16 l1.76 -6.04 l9.08 0 z M7.08 31.04 l4.36 -14.72 l4.44 14.72 l-8.8 0 z M35.8 23.8 c3.04 1.44 7 3.72 7 7.84 c0 1.2 -0.2 3.52 -1.52 5.48 c-1.48 2.2 -3.8 3.28 -7 3.28 c-3.4 0 -7.36 -1.64 -8.6 -5.36 c-0.04 -0.12 0 -0.24 0.12 -0.32 l3.68 -3.16 c0.16 -0.12 0.4 -0.12 0.52 0.08 c0.08 0.2 0.24 0.52 0.44 0.92 c0.6 1.24 2.04 2.48 3.64 2.48 c1.24 0 2.92 -0.68 2.92 -2.6 c0 -1.84 -2.52 -2.88 -4.08 -3.48 c-1.8 -0.72 -3.64 -1.64 -5.2 -3 c-1.64 -1.52 -2.44 -3.2 -2.44 -5.2 c0 -5 4.6 -7.52 8.96 -7.52 c3.44 0 6 1.8 7.68 5.36 c0.08 0.16 0 0.36 -0.12 0.44 l-3.56 2.48 c-0.16 0.08 -0.24 0.08 -0.4 -0.12 c-1.36 -1.96 -2.56 -2.88 -4.16 -2.88 c-0.84 0 -2.8 0.32 -2.8 1.8 c0 1.8 3.32 2.72 4.92 3.48 z M28.52 34.84 c1 2 3.76 3.16 6 3.16 c2.92 0 5.28 -2 5.6 -5.04 c0.4 -3.72 -2.52 -5.32 -5.4 -6.76 l-1.28 -0.56 c-2.96 -1.32 -5.12 -2.32 -5.12 -5.08 c0 -3.04 2.8 -4.44 5.56 -4.44 c2.52 0 3.84 1.48 4.52 2.4 c0.24 0.32 0.64 0.04 0.4 -0.28 c-0.68 -0.84 -2.12 -2.6 -4.92 -2.6 c-3.16 0 -6.04 1.56 -6.04 4.92 c0 3 2.4 4.16 5.44 5.56 l1.24 0.6 c3.96 1.88 5.4 3.64 5.08 6.2 c-0.6 4.08 -3.72 4.6 -5.08 4.6 c-3 0 -5 -1.8 -5.6 -2.92 c-0.2 -0.2 -0.48 0 -0.4 0.24 z M57.8 23.8 c3.04 1.44 7 3.72 7 7.84 c0 1.2 -0.2 3.52 -1.52 5.48 c-1.48 2.2 -3.8 3.28 -7 3.28 c-3.4 0 -7.36 -1.64 -8.6 -5.36 c-0.04 -0.12 0 -0.24 0.12 -0.32 l3.68 -3.16 c0.16 -0.12 0.4 -0.12 0.52 0.08 c0.08 0.2 0.24 0.52 0.44 0.92 c0.6 1.24 2.04 2.48 3.64 2.48 c1.24 0 2.92 -0.68 2.92 -2.6 c0 -1.84 -2.52 -2.88 -4.08 -3.48 c-1.8 -0.72 -3.64 -1.64 -5.2 -3 c-1.64 -1.52 -2.44 -3.2 -2.44 -5.2 c0 -5 4.6 -7.52 8.96 -7.52 c3.44 0 6 1.8 7.68 5.36 c0.08 0.16 0 0.36 -0.12 0.44 l-3.56 2.48 c-0.16 0.08 -0.24 0.08 -0.4 -0.12 c-1.36 -1.96 -2.56 -2.88 -4.16 -2.88 c-0.84 0 -2.8 0.32 -2.8 1.8 c0 1.8 3.32 2.72 4.92 3.48 z M50.519999999999996 34.84 c1 2 3.76 3.16 6 3.16 c2.92 0 5.28 -2 5.6 -5.04 c0.4 -3.72 -2.52 -5.32 -5.4 -6.76 l-1.28 -0.56 c-2.96 -1.32 -5.12 -2.32 -5.12 -5.08 c0 -3.04 2.8 -4.44 5.56 -4.44 c2.52 0 3.84 1.48 4.52 2.4 c0.24 0.32 0.64 0.04 0.4 -0.28 c-0.68 -0.84 -2.12 -2.6 -4.92 -2.6 c-3.16 0 -6.04 1.56 -6.04 4.92 c0 3 2.4 4.16 5.44 5.56 l1.24 0.6 c3.96 1.88 5.4 3.64 5.08 6.2 c-0.6 4.08 -3.72 4.6 -5.08 4.6 c-3 0 -5 -1.8 -5.6 -2.92 c-0.2 -0.2 -0.48 0 -0.4 0.24 z M71.11999999999999 40 c-0.2 0 -0.32 -0.16 -0.32 -0.36 l0 -25.68 c0 -0.2 0.12 -0.36 0.32 -0.36 l13.6 0 c0.2 0 0.36 0.16 0.36 0.36 l0 4.28 c0 0.2 -0.16 0.36 -0.36 0.36 l-8.64 0 l0 5.44 l6.72 0 c0.2 0 0.32 0.16 0.32 0.36 l0 4.36 c0 0.2 -0.12 0.36 -0.32 0.36 l-6.72 0 l0 5.88 l8.64 0 c0.2 0 0.36 0.16 0.36 0.36 l0 4.28 c0 0.2 -0.16 0.36 -0.36 0.36 l-13.6 0 z M73.11999999999999 16.12 l0 21.28 c0 0.24 0.16 0.32 0.32 0.32 l9.2 0 c0.36 0 0.28 -0.48 0 -0.48 l-9 0 l0 -10.44 l7.36 0 c0.24 0 0.24 -0.56 0 -0.56 l-7.36 0 l0 -9.92 l9 0 c0.28 0 0.36 -0.52 0 -0.52 l-9.2 0 c-0.16 0 -0.32 0.12 -0.32 0.32 z M95.95999999999998 18.6 l-5.68 0 c-0.2 0 -0.36 -0.16 -0.36 -0.36 l0 -4.28 c0 -0.2 0.16 -0.36 0.36 -0.36 l16.68 0 c0.2 0 0.36 0.16 0.36 0.36 l0 4.28 c0 0.2 -0.16 0.36 -0.36 0.36 l-5.68 0 l0 21.04 c0 0.2 -0.16 0.36 -0.36 0.36 l-4.6 0 c-0.2 0 -0.36 -0.16 -0.36 -0.36 l0 -21.04 z M104.51999999999998 15.8 l-12.08 0 c-0.28 0 -0.28 0.52 0 0.52 l5.92 0 l0 21.2 c0 0.28 0.52 0.28 0.52 0 l0 -21.2 l5.64 0 c0.4 0 0.36 -0.52 0 -0.52 z M121.91999999999999 23.8 c3.04 1.44 7 3.72 7 7.84 c0 1.2 -0.2 3.52 -1.52 5.48 c-1.48 2.2 -3.8 3.28 -7 3.28 c-3.4 0 -7.36 -1.64 -8.6 -5.36 c-0.04 -0.12 0 -0.24 0.12 -0.32 l3.68 -3.16 c0.16 -0.12 0.4 -0.12 0.52 0.08 c0.08 0.2 0.24 0.52 0.44 0.92 c0.6 1.24 2.04 2.48 3.64 2.48 c1.24 0 2.92 -0.68 2.92 -2.6 c0 -1.84 -2.52 -2.88 -4.08 -3.48 c-1.8 -0.72 -3.64 -1.64 -5.2 -3 c-1.64 -1.52 -2.44 -3.2 -2.44 -5.2 c0 -5 4.6 -7.52 8.96 -7.52 c3.44 0 6 1.8 7.68 5.36 c0.08 0.16 0 0.36 -0.12 0.44 l-3.56 2.48 c-0.16 0.08 -0.24 0.08 -0.4 -0.12 c-1.36 -1.96 -2.56 -2.88 -4.16 -2.88 c-0.84 0 -2.8 0.32 -2.8 1.8 c0 1.8 3.32 2.72 4.92 3.48 z M114.63999999999999 34.84 c1 2 3.76 3.16 6 3.16 c2.92 0 5.28 -2 5.6 -5.04 c0.4 -3.72 -2.52 -5.32 -5.4 -6.76 l-1.28 -0.56 c-2.96 -1.32 -5.12 -2.32 -5.12 -5.08 c0 -3.04 2.8 -4.44 5.56 -4.44 c2.52 0 3.84 1.48 4.52 2.4 c0.24 0.32 0.64 0.04 0.4 -0.28 c-0.68 -0.84 -2.12 -2.6 -4.92 -2.6 c-3.16 0 -6.04 1.56 -6.04 4.92 c0 3 2.4 4.16 5.44 5.56 l1.24 0.6 c3.96 1.88 5.4 3.64 5.08 6.2 c-0.6 4.08 -3.72 4.6 -5.08 4.6 c-3 0 -5 -1.8 -5.6 -2.92 c-0.2 -0.2 -0.48 0 -0.4 0.24 z"></path></g><g id="SvgjsG9538" featureKey="sloganFeature-0" transform="matrix(1.458592920691435,0,0,1.458592920691435,130.54140847033116,52.45734662316802)" fill="#071333"><path d="M1 20 l0 -16 l1.8 0 l2.1 10 l0.2 0 l2.1 -10 l1.8 0 l0 16 l-2 0 l0 -8 l-1.42 8 l-1.2 0 l-1.38 -8 l0 8 l-2 0 z M12.75 20 l0 -8.4 c0 -5.58 0 -7.78 3 -7.78 s3 2.2 3 7.78 l0 8.4 l-2 0 l0 -4.6 l-2 0 l0 4.6 l-2 0 z M14.75 13.8 l2 0 l0 -2.2 c0 -5.2 0 -6.18 -1 -6.18 s-1 0.98 -1 6.18 l0 2.2 z M22.5 20 l0 -16 l1.8 0 l2.62 9.8 l-0.02 -0.2 l0 -9.6 l2 0 l0 16 l-1.8 0 l-2.62 -8.8 l0.02 0.2 l0 8.6 l-2 0 z M32.65 20 l0 -8.4 c0 -5.58 0 -7.78 3 -7.78 s3 2.2 3 7.78 l0 8.4 l-2 0 l0 -4.6 l-2 0 l0 4.6 l-2 0 z M34.65 13.8 l2 0 l0 -2.2 c0 -5.2 0 -6.18 -1 -6.18 s-1 0.98 -1 6.18 l0 2.2 z M42.199999999999996 11.58 c0 -5.58 0 -7.78 3 -7.78 c2.28 0 2.82 1.26 2.96 4.28 l-1.86 0 c-0.08 -2.18 -0.3 -2.68 -1.1 -2.68 c-1.12 0 -1.12 0.98 -1.12 6.18 c0 5.78 0 6.62 1.12 6.62 c1.06 0 1.12 -0.76 1.12 -5 l-1.32 0 l0 -1.6 l3.2 0 l0 0.78 c0 5.6 0 7.82 -3 7.82 s-3 -2.22 -3 -8.62 z M51.55 20 l0 -16 l4.6 0 l0 1.6 l-2.6 0 l0 5.2 l2.2 0 l0 1.6 l-2.2 0 l0 5.6 l2.6 0 l0 2 l-4.6 0 z M59.3 20 l0 -16 l1.8 0 l2.1 10 l0.2 0 l2.1 -10 l1.8 0 l0 16 l-2 0 l0 -8 l-1.42 8 l-1.2 0 l-1.38 -8 l0 8 l-2 0 z M71.05 20 l0 -16 l4.6 0 l0 1.6 l-2.6 0 l0 5.2 l2.2 0 l0 1.6 l-2.2 0 l0 5.6 l2.6 0 l0 2 l-4.6 0 z M78.8 20 l0 -16 l1.8 0 l2.62 9.8 l-0.02 -0.2 l0 -9.6 l2 0 l0 16 l-1.8 0 l-2.62 -8.8 l0.02 0.2 l0 8.6 l-2 0 z M88.15 5.800000000000001 l0 -1.8 l6 0 l0 1.8 l-2 0 l0 14.2 l-2 0 l0 -14.2 l-2 0 z M103.25000000000001 20 l0 -16 l2 0 l0 14 l2.6 0 l0 2 l-4.6 0 z M110.80000000000001 20 l0 -16 l2 0 l0 16 l-2 0 z M116.55000000000001 20 l0 -16 l1.8 0 l2.1 10 l0.2 0 l2.1 -10 l1.8 0 l0 16 l-2 0 l0 -8 l-1.42 8 l-1.2 0 l-1.38 -8 l0 8 l-2 0 z M128.3 20 l0 -16 l2 0 l0 16 l-2 0 z M133.25 5.800000000000001 l0 -1.8 l6 0 l0 1.8 l-2 0 l0 14.2 l-2 0 l0 -14.2 l-2 0 z M142.20000000000002 20 l0 -16 l4.6 0 l0 1.6 l-2.6 0 l0 5.2 l2.2 0 l0 1.6 l-2.2 0 l0 5.6 l2.6 0 l0 2 l-4.6 0 z M149.95000000000002 20 l0 -16 l3 0 c3 0 3 2.2 3 7.58 c0 6.2 0 8.42 -3 8.42 l-3 0 z M151.95000000000002 18 l1 0 c1.12 0 1.12 -0.84 1.12 -6.42 c0 -5 0 -5.98 -1.12 -5.98 l-1 0 l0 12.4 z"></path></g>
			</g>
		</svg>
	